# xmcd
#
# Track frame offsets:
#  150
#  19115
#  42942
#  67111
#  78365
#  93688
#  113346
#  139312
#  163299
#  176664
#
# Disc length: 2626 seconds
#
# Revision: 1
# Processed by: cddbd v1.5.1PL0 Copyright (c) Steve Scherf et al.
# Submitted via: Collectorz.com_Music_Collector 6.9
#
DISCID=860a400a
DTITLE=Mo and The Reapers - Hot'N' Spicy Blues
DYEAR=1900
DGENRE=Blues
TTITLE0=Voodoo In My Head
TTITLE1=Jammin' At Dan Lynch
TTITLE2=They Call Me Mo
TTITLE3=J'Conduis Un Truck Nicolas
TTITLE4=I'Ve Got Them Pension Funds Blues Again Mama !
TTITLE5=Jumpin' At The Swamp Water Cafe
TTITLE6=Free Mason Blues
TTITLE7=New Orleans Memories
TTITLE8=My Computer Aint Workin' Any More
TTITLE9=Goin' To Clarksdale
EXTD=
EXTT0=
EXTT1=
EXTT2=
EXTT3=
EXTT4=
EXTT5=
EXTT6=
EXTT7=
EXTT8=
EXTT9=
PLAYORDER=
